<?xml version="1.0" encoding="UTF-8"?>
<svg data-bbox="1.259 1.486 372.144 371.901" height="375" width="375" xmlns="http://www.w3.org/2000/svg" data-type="color">
    <g>
        <path fill="#3C3C6C" d="m264 98 2.262 1.8c21.794 17.942 35.451 47.008 38.527 74.756 2.968 34.38-7.252 65.113-29.344 91.495-14.488 16.762-33.995 28.358-55.132 34.699l-2.125.64A72.484 72.484 0 0 1 204 304c-1.603-1.603-1.126-3.297-1.127-5.517l-.009-2.958.007-3.271-.006-3.424c-.004-3.756-.001-7.512.002-11.267l-.003-7.791c-.001-5.451 0-10.902.006-16.353.005-6.31.003-12.62-.002-18.931-.005-6.06-.005-12.12-.002-18.179 0-2.584 0-5.167-.002-7.751-.003-3.604.001-7.208.007-10.812l-.007-3.271.009-2.958.001-2.585C203 187 203 187 204 186a74.31 74.31 0 0 1 4.624-.24l2.984-.078c4.518-.084 9.036-.15 13.555-.197 2.384-.032 4.769-.08 7.152-.143 3.432-.092 6.861-.13 10.294-.158l3.227-.116c7.206.019 7.206.019 9.862 2.55 1.323 2.073 2.33 4.126 3.302 6.382l1.761 3.168a1198 1198 0 0 1 5.051 9.832l1.811 3.445c3.573 7.04 5.926 12.06 3.713 19.91-2.923 5.574-6.091 8.752-11.586 11.958-6.014 1.503-11.597 1.781-17.063-1.438-4.087-2.904-7.425-6.35-9.687-10.875-1.367-9.395 3.258-16.522 7.5-24.563L248 191h-40v107c35.524-11.841 61.67-26.574 79.231-60.125 13.675-27.489 14.82-58.067 5.453-87.063C282.949 122.401 262.734 100.377 236 87c-27.773-13.086-59.12-14.321-88-4-27.419 10.541-49.594 31.144-62.019 57.749-12.214 28.019-13.22 58.983-2.376 87.665C88.951 241.624 96.565 253.34 106 264l1.82 2.074c8.603 9.18 19.146 16.298 30.43 21.738l2.085 1.02c8.648 3.967 17.47 6.264 26.665 9.168V191l-39 1c4.96 9.524 4.96 9.524 9.963 19.025.62 1.21 1.237 2.42 1.853 3.631l.997 1.84C143.336 221.53 143.1 224.66 142 230c-2.282 5.563-5.702 9.12-11 12-5.728 1.91-11.776 1.912-17.313-.625-4.662-2.666-7.448-6.075-10-10.813-1.85-6.898-.159-11.62 2.997-17.648l1.136-2.25a942.842 942.842 0 0 1 3.618-7.039c.811-1.597 1.622-3.195 2.431-4.793 5.902-11.603 5.902-11.603 7.131-12.832a75.498 75.498 0 0 1 4.688-.13l3.023-.009 3.289.006 3.352-.003c2.343 0 4.687.001 7.03.006 3.602.005 7.204 0 10.805-.007 2.271 0 4.542.002 6.813.004l3.29-.006 3.023.01 2.675.002C171 186 171 186 172 187c.096 1.506.122 3.016.12 4.524l.004 2.962-.01 3.276v3.429c0 3.76-.009 7.521-.016 11.282l-.005 7.798c-.003 6.155-.011 12.31-.021 18.465-.011 7.006-.017 14.012-.022 21.018-.01 14.415-.028 28.83-.05 43.246-3.117.86-4.978 1.004-8.125.18l-2.373-.615-2.502-.69-2.584-.702c-29.626-8.271-55.307-27.47-70.728-54.173-16.09-29.481-20.322-61.646-11.12-93.995 9.218-30.465 30.53-54.816 58.245-69.998C175.679 60.53 227.235 67.303 264 98Zm-142 97c-2.003 3.978-4.002 7.957-6 11.938l-1.734 3.443-1.641 3.271-1.523 3.031c-1.174 2.04-1.174 2.04-1.102 3.317h25c-1.336-4.009-2.45-7.125-4.383-10.742-.445-.838-.89-1.676-1.347-2.54l-1.395-2.593-1.418-2.664A1943.1 1943.1 0 0 0 123 195h-1Zm130 0c-2.003 3.978-4.002 7.957-6 11.938l-1.734 3.443-1.641 3.271-1.523 3.031c-1.174 2.04-1.174 2.04-1.102 3.317h25l-4.313-9.125-1.34-2.84c-2.068-4.37-4.162-8.722-6.347-13.035h-1Zm-143 30c1.038 6.23 1.393 7.231 6 11 3.89 2.377 7.391 2.224 11.781 1.61 4.396-1.208 7.126-3.921 9.594-7.735.783-2.02.783-2.02.625-4.875h-28Zm129 0c1.66 6.747 1.66 6.747 6.168 11.05 4.237 2.196 8.44 2.557 13.047 1.387 5.001-2.086 7.076-4.815 9.191-9.73.649-1.563.649-1.563.594-2.707h-29Z" data-color="1"/>
        <path fill="#3C3C6C" d="M310.675 48.437C316.911 53.899 322.753 59.57 328 66l2.668 3.125c31.626 37.621 46.055 87.033 42.093 135.815-.644 6.072-1.617 12.065-2.761 18.06l-.406 2.195C364.514 251.812 352.772 277.737 336 299l-2.27 2.903c-7.517 9.386-15.367 18.511-24.73 26.097l-1.484 1.218c-39.895 32.646-88.983 48.181-140.54 43.282-11.927-1.367-23.524-3.923-34.976-7.5l-2.298-.717C104.804 356.276 81.997 342.946 63 325a749.874 749.874 0 0 0-3.938-3.312C27.298 293.814 8.91 252.137 3 211l-.313-2.115C-3.442 161.833 10.43 113.19 39.01 75.562c31.382-40.236 75.623-66.12 126.336-72.874 53.299-6.064 104.88 11.065 145.329 45.749ZM178.72 7.109C142.446 9.034 106.667 21.473 78 44l-2.692 2.024C38.525 74.639 14.524 117.827 8.312 163.86c-5.757 46.927 6.454 94.08 34.778 131.933C47.775 301.778 52.813 307.448 58 313l2.418 2.618c32.753 34.19 79.746 51.557 126.52 52.632 49.19-1.12 92.521-19.46 128.062-53.25l2.07-1.875C327.929 302.948 336.683 289.878 344 277l1.98-3.398c9.517-16.741 15.24-34.79 19.02-53.602l.71-3.503c7.969-45.21-3.866-93.89-29.71-131.497-6.307-8.96-13.453-17.074-21-25l-1.98-2.14c-31.715-33.27-77.6-48.603-122.462-51.047-3.96-.083-7.882.108-11.838.296Z" data-color="1"/>
        <path fill="#3C3C6C" d="M184.555 57.875c35.119-.854 67.543 13.13 93.084 36.843 25.398 24.25 38.268 57.54 39.361 92.282.334 34.687-13.952 67.451-38.023 92.082-20.01 19.847-50.772 37.142-79.79 37.043l-2.331.008C195 316 195 316 194 315a96.843 96.843 0 0 1-.147-5.323l-.022-3.5-.008-3.876a5345.39 5345.39 0 0 1-.061-17.418l-.012-4.603c-.02-7.215-.034-14.43-.042-21.645-.01-8.316-.036-16.632-.076-24.948a4774.08 4774.08 0 0 1-.049-19.297 1928.5 1928.5 0 0 0-.036-11.515c-.024-3.62-.028-7.24-.017-10.86 0-1.945-.019-3.89-.038-5.836.073-12.544 3.796-23.296 12.649-32.374 4.283-3.949 8.534-7.403 13.86-9.805 2.437.25 2.437.25 4 1v4c-1.907 1.422-1.907 1.422-4.5 2.75-8.822 4.973-15.08 11.389-18.089 21.16-1.642 6.691-1.68 13.183-1.639 20.045v3.847c-.001 3.454.01 6.907.025 10.361.012 3.62.013 7.24.016 10.859.006 6.842.022 13.684.042 20.526.023 7.794.034 15.589.044 23.383.02 16.023.056 32.046.1 48.069 3.298-.59 6.593-1.194 9.887-1.8l2.786-.498c31.772-5.904 59.13-25.245 77.327-51.702 18.325-28.067 24.288-62.054 17.492-94.8-7.129-31.906-26.272-59.71-53.673-77.652-27.17-17.18-61.075-23.14-92.569-16.575C140.983 71.689 122.922 80.6 107 94l-2.101 1.68C100.403 99.344 96.665 103.516 93 108l-2.054 2.441c-17.257 21.586-26.385 48.16-26.258 75.684l.017 3.884c.123 9.63.772 18.691 3.295 27.991l.57 2.138c8.74 31.574 29.178 57.717 57.387 74.194 14.153 8.014 28.714 12.705 44.762 15.125C174 310 174 310 176 311c-.06-17.038-.138-34.076-.235-51.114-.045-7.912-.085-15.823-.111-23.735-.023-6.9-.057-13.799-.102-20.698-.024-3.65-.043-7.3-.05-10.95-.007-4.084-.037-8.167-.07-12.25l.005-3.632c-.109-9.754-1.706-17.71-7.253-25.832C167 161 167 161 166.098 158.9c-1.393-2.41-2.562-2.81-5.098-3.899a405.26 405.26 0 0 1-5.25-3.125l-2.703-1.633L151 149l1-5c8.787 1.249 15.686 7.97 21.243 14.527 5.027 7.073 7.885 14.625 7.878 23.269l.004 3.586-.011 3.924v4.14c0 3.743-.005 7.486-.012 11.23-.007 3.913-.007 7.826-.008 11.739-.003 7.409-.012 14.818-.022 22.227-.01 8.435-.016 16.87-.021 25.305-.01 17.351-.028 34.702-.05 52.053-1.585.013-3.17.022-4.754.03l-2.674.017c-30.08-.549-58.492-18.638-79.413-38.781-24.735-25.694-36.392-59.297-36.242-94.647C58.94 150.268 72.65 121.784 94 98l2.176-2.434c22.878-24.17 55.714-36.093 88.379-37.691Z" data-color="1"/>
        <path fill="#3C3C6C" d="m187 135 3 1v179l-5 1V136l2-1Z" data-color="1"/>
        <path fill="#3C3C6C" d="M268 128c1 1.867 1 1.867 1 4-3.25 7.206-9.572 14.048-17 17-8.01.933-16.052.439-23-4-1-3-1-3-.066-5.27 4.146-7.01 8.457-11.13 15.504-15.105 8.026-1.958 16.265-.463 23.562 3.375Zm-26 4c-2.68 2.431-5.004 4.978-7 8v2c5.69 1.897 11.412 3.581 17.145 1.055 4.084-2.41 7.289-4.992 9.855-9.055v-3c-7.214-1.874-13.364-3.021-20 1Z" data-color="1"/>
        <path fill="#3C3C6C" d="M188.063 87.066c5.927 2.856 9.165 9.39 11.305 15.324 1.538 6.342.363 11.706-2.618 17.422-2.227 3.614-4.374 6.591-7.75 9.188-3.288-.334-4.87-1.478-7-3.938-4.5-5.612-7.434-11.759-7.125-19.062.884-5.778 6.169-19.16 13.188-18.934ZM187 93a78.728 78.728 0 0 0-2.5 3.812l-1.343 2.145c-2.377 4.199-2.778 8.32-2.157 13.043 1.575 4.381 3.587 7.82 7 11 4.005-5.602 7.02-10.411 6.606-17.461-1.127-4.726-3.667-8.713-6.606-12.54h-1Z" data-color="1"/>
        <path fill="#3C3C6C" d="M135 127c4.8 3.904 8.854 8.1 11 14v4c-7.642 3.864-14.472 4.946-23 4-3.5-1.25-3.5-1.25-6-3l-2.5-1.625c-3.472-3.299-6.53-6.982-8.5-11.375.133-2.676.133-2.676 1-5 8.715-4.693 19.18-6.136 28-1Zm-22 4c0 4.363 2.28 6.073 5.14 9.191 3.48 3.384 5.955 3.75 10.735 4.059 3.981-.09 7.358-.994 11.125-2.25-2.72-5.55-5.417-9.155-11-12-5.728-1.591-10.409-.534-16 1Z" data-color="1"/>
        <path fill="#3C3C6C" d="m255 33 4 1v13l5-9 4 1c-1.557 5.354-3.982 10.002-6.625 14.875l-1.273 2.375c-1.03 1.919-2.065 3.835-3.102 5.75h-4c-1.525-5.082-.622-9.82 0-15l-5 11-5-1c1.553-5.323 3.944-9.96 6.563-14.813l1.248-2.35c3.041-5.69 3.041-5.69 4.189-6.837Zm2 16 1 3Z" data-color="1"/>
        <path fill="#3C3C6C" d="M143 28c1.438 1.75 1.438 1.75 2 4-.375 3.25-.375 3.25-1 6l1.934.727C148 40 148 40 148.785 42.023c.743 6.296.743 6.296-1.722 9.477-3.84 1.88-6.808 2.212-11.063 2.5-7.27-17.347-7.27-17.347-7-25 8.702-3.901 8.702-3.901 14-1Zm-8 3-2 2 2 5 5-2-1-5h-4Zm2 11 1 6c3.05 1.011 3.05 1.011 6 0l-1-7c-3.776-.298-3.776-.298-6 1Z" data-color="1"/>
        <path fill="#3C3C6C" d="M65.625 73.625C69 74 69 74 71 75l-1 4h-7v5l1.777.805c2.936 1.579 5.112 3.693 7.54 5.953C74.053 92.297 74.053 92.297 77 92l1-5-5-2v2l-4-1c0-3 0-3 2-5.188L73 79c4.437 1.394 7.1 3.354 10 7 .625 3 .625 3 0 6-2.374 3.211-3.934 4.716-7.813 5.75-4.166-.98-6.239-3.032-9.289-5.953-1.968-1.959-1.968-1.959-4.835-3.797C59 86 59 86 57.937 82.562 58 79 58 79 59.5 76.063 62 74 62 74 65.625 73.626Z" data-color="1"/>
        <path fill="#3C3C6C" d="M92 52c3.18 2.547 5.51 5.786 8 9l1.434 1.688c2.217 2.824 2.566 4.373 2.566 8-1 3.312-1 3.312-2.813 5.187C97.33 77.859 97.33 77.859 95 78c-4.399-2.133-6.881-4.948-9.813-8.813l-2.394-3.082C80.803 62.658 80.448 60.91 81 57c3.319-4.49 5.476-5.701 11-5Zm-5 5-2 4 9 12 5-1 1-3a60.965 60.965 0 0 0-4.188-6.188L94.6 61.12C93.276 59.3 93.276 59.3 91 57h-4Z" data-color="1"/>
        <path fill="#3C3C6C" d="M228 24h4c1.383 2.766 1.112 5.01 1.098 8.102l-.01 3.671-.025 3.852-.014 3.875c-.012 3.167-.028 6.333-.049 9.5l-5-1V42h-5l-4 7-4-1c.642-3.079 1.688-5.514 3.215-8.258l1.33-2.394 1.393-2.473 1.38-2.496c3.418-6.115 3.418-6.115 5.682-8.379Zm0 7 1 2Zm-1 2-1 5h2v-5h-1Z" data-color="1"/>
        <path fill="#3C3C6C" d="M165 20c2.34.16 2.34.16 5 1 1.441 2.371 1.441 2.371 2.563 5.438l1.234 3.273L175 33c.766 1.856 1.537 3.71 2.313 5.563C178.486 41.386 179 42.898 179 46h-5l-2-8h-5l-1 9-5 1c1.42-22.841 1.42-22.841 4-28Zm3 9-1 5h3l-1-5h-1Z" data-color="1"/>
        <path fill="#3C3C6C" d="M308.809 71.004c2.718 1.236 4.307 2.692 6.191 4.996v2h2l-2 4c-3.16-1.37-3.992-1.989-6-5l-4 2v3l1.5 1.5L308 85v3l-3 1-1.75-2.062L301 85c-2.218.137-2.218.137-4 1 .558 3.344 1.352 6.033 3 9l-4 2c-4.976-4.977-4.976-4.977-5.074-9.277 1.445-5.006 4.004-7.328 7.824-10.723l1.883-1.808c4.59-4.193 4.59-4.193 8.176-4.188Z" data-color="1"/>
        <path fill="#3C3C6C" d="M289 52c2.438 1.625 2.438 1.625 4 4-.25 3.75-.25 3.75-1 7h-4c-1-3-1-3-1-6-3.18.325-4.689.709-7.055 2.926l-1.82 2.386-1.867 2.364c-1.5 2.226-1.5 2.226-.953 4.617L276 71l6-1 2 4c-3.72 2.48-5.598 2.463-10 2-2.438-1.563-2.438-1.563-4-4-.44-3.277-.67-5.82 1.005-8.77 1.381-1.787 2.836-3.448 4.37-5.105l1.54-1.758c4.221-4.755 5.809-5.999 12.085-4.367Z" data-color="1"/>
        <path fill="#3C3C6C" d="m102 303 2 1-1 12 2.313-4c1.3-2.25 1.3-2.25 2.687-4h3c-.523 4.705-2.667 8.015-5.313 11.813l-1.185 1.81c-1.178 1.709-1.178 1.709-3.502 4.377h-4l1-11-5 7-3-1c1.48-4.163 3.545-7.585 6-11.25l2.125-3.203C100 304 100 304 102 303Z" data-color="1"/>
        <path fill="#3C3C6C" d="M289 295c1.875 1.313 1.875 1.313 3 3v4l2.313.813c2.56 1.131 3.884 2.1 5.687 4.187l-1 3a56.54 56.54 0 0 1-7-4l-2 1 .938 1.75c.988 2.093 1.579 3.995 2.062 6.25-4.518-.388-6.93-3.602-9.813-6.75l-1.56-1.594c-3.645-3.942-3.645-3.942-3.557-7.43 2.257-5.405 5.626-5.806 10.93-4.226Zm-4 2-3 2c1.37 3.161 1.99 3.993 5 6l2-1c-.27-2.437-.27-2.437-1-5l-3-2Z" data-color="1"/>
        <path fill="#3C3C6C" d="M47 212c.58 3.01 1.022 5.929 1 9-1.5 2.063-1.5 2.063-4 3h-7a401.144 401.144 0 0 0-6 3c-2.375-.313-2.375-.313-4-1l1-3 5-1 1-5-8 2v-4a911.27 911.27 0 0 1 6.563-1.5l3.69-.844c3.67-.642 7.032-.77 10.747-.656Zm-10 4 1 4 5 1c1.108-1.883 1.108-1.883 2-4l-1-2c-2.621 0-4.51.313-7 1Z" data-color="1"/>
        <path fill="#3C3C6C" d="M251 320c1.695 2.407 2.614 4.079 3.625 6.75l.848 1.883c.754 1.851.754 1.851 1.527 5.367-1.107 2.482-2.095 4.095-4 6-2.75.563-2.75.563-6 0-3.815-4.27-6.568-9.973-7.375-15.625.375-2.375.375-2.375 1.938-4.25 3.573-1.65 5.68-1.168 9.437-.125Zm-6 2-2 3 6 12 4-1c-.535-5.348-2.467-9.358-5-14h-3Z" data-color="1"/>
        <path fill="#3C3C6C" d="M336 223c3.067.833 6.106 1.677 9 3 1.414 2.829 1.319 4.874 1 8-1.563 1.938-1.563 1.938-4 3-5.394-.212-11.103-1.666-16-4-2-3-2-3-1.813-5.5 2.106-6.479 5.801-5.876 11.813-4.5Zm-8 3 1 5c4.537 1.452 8.18 2.235 13 2l1-4c-7.421-3.511-7.421-3.511-15-3Z" data-color="1"/>
        <path fill="#3C3C6C" d="M193 19h4v22l7 1v5a964.77 964.77 0 0 1-5.375-.438c-.998-.08-1.995-.162-3.023-.246C193 46 193 46 191 45c-.383-18.851-.383-18.851 2-26Z" data-color="1"/>
        <path fill="#3C3C6C" d="m34.938 162.125 3.715.258c3.39.625 4.992 1.133 7.348 3.617.375 3.563.375 3.563 0 7-2 2-2 2-4.356 2.266C28.192 175.19 28.192 175.19 25 172c-.463-6.257-.463-6.257 1.083-8.734 2.96-1.954 5.377-1.426 8.855-1.141ZM28 166l1 5 13 1 1-5c-3.31-1.001-6.3-1.104-9.75-1.063l-2.984.028-2.265.035Z" data-color="1"/>
        <path fill="#3C3C6C" d="m320 242 19 8v3c-3.123-.486-5.996-.999-9-2l-2 4 7 2v4c-6.94-2.162-13.431-4.894-20-8l1-3c3.024.588 6.018 1.227 9 2l1-3-7-3 1-4Z" data-color="1"/>
        <path fill="#3C3C6C" d="M89 291c-.596 4.869-2.725 8.593-5.063 12.813l-1.142 2.1c-.926 1.698-1.86 3.393-2.795 5.087l-4-1 1-2.313c1.174-2.678 1.174-2.678 1-5.687l-2-1a179.61 179.61 0 0 0-4 2h-3v-3c2.32-2.104 5.084-3.617 7.75-5.25l2.21-1.43c.71-.44 1.419-.881 2.15-1.336l1.967-1.227c2.373-.934 3.56-.596 5.923.243Zm-9 6 1 3 2-4c-1.224-.075-1.224-.075-3 1Z" data-color="1"/>
        <path fill="#3C3C6C" d="M268 306c5.145 4.551 9.478 10.057 10.688 16.875C278 326 278 326 275.813 328.063c-2.813.937-2.813.937-5.258.296-3.077-1.637-4.317-3.286-6.243-6.171-.58-.853-1.162-1.705-1.761-2.583-1.478-2.482-2.563-4.895-3.551-7.605h4c1.922 2.336 1.922 2.336 3.75 5.375l1.86 3.023C270 323 270 323 270 325l4-1c-.544-4.27-1.998-6.763-4.563-10.188C266 309.2 266 309.2 266 307l2-1Z" data-color="1"/>
        <path fill="#3C3C6C" d="m31.23 187.805 2.432.02 2.525.05 2.56.028c2.085.023 4.169.06 6.253.097v3l-18 1v5l18-1v4a542.01 542.01 0 0 1-9.313.25l-2.67.102c-6.495.099-6.495.099-9.13-2.172-1.259-3.092-.848-5.024.113-8.18 3.1-2.067 3.729-2.245 7.23-2.195Z" data-color="1"/>
        <path fill="#3C3C6C" d="M60 252c2.33 3.496 2.588 4.887 2 9-2.454 2.664-4.039 3.84-7.625 4.438-2.78-.513-3.72-1.174-5.375-3.438v-2l-2.813 1.563C43 263 43 263 40 262v-2a845.244 845.244 0 0 1 7.75-4.563l2.21-1.326 2.15-1.24 1.967-1.158c2.433-.902 3.551-.727 5.923.287Zm-9 6 4 4 4-2-1-5c-2.895 0-4.597 1.482-7 3Z" data-color="1"/>
        <path fill="#3C3C6C" d="M121 316c3.716.565 6.724 1.11 10 3l-1 3-7-1-2 4 6 2-1 3-7-2-1 6 5 2-1 3c-6.182-2.172-6.182-2.172-8-5 .413-4.694 1.894-8.223 4.063-12.375.547-1.06 1.095-2.12 1.66-3.21L121 316Z" data-color="1"/>
        <path fill="#3C3C6C" d="m346 161 4 1c.367 6.485.367 6.485-1.18 8.656-4.86 3.588-12.986 3.66-18.82 3.344-1.316-3.62-2-6.096-2-10l4 1 1 5h5l-1-7h3l1 6 5-1v-7Z" data-color="1"/>
        <path fill="#3C3C6C" d="M345 184c3.653 1.25 4.78 1.671 7 5-.063 2.5-.063 2.5-1 5-3.715 2.783-6.461 3.41-11.063 3.375l-3.097.023c-3.189-.447-4.582-1.129-6.84-3.398-.478-3.275-.614-5.123 1.313-7.875C333 185 333 185 336 185v3l-2 1v3l14 1v-5h-3v-4Z" data-color="1"/>
        <path fill="#3C3C6C" d="M315 264v3l-5 1c.372 2.6.693 3.733 2.707 5.484l2.106 1.266 2.082 1.297c2.327 1.228 2.327 1.228 6.105.953v-4h-2l1-3 4 2c.357 5.35.357 5.35-1.063 7.938-2.393 1.312-4.156 1.352-6.82.832-4.526-1.646-8.834-4.249-12.117-7.77-.362-3.178-.537-5.105 1.125-7.875 2.655-1.593 4.843-1.327 7.875-1.125Z" data-color="1"/>
        <path fill="#3C3C6C" d="M228 325h3l-.035 3.035-.028 4.027-.035 3.973c.093 3.781.484 7.244 1.098 10.965-1.914-.242-1.914-.242-4-1-.836-1.82-.836-1.82-1.375-4.125-1.278-4.509-3.205-7.104-6.516-10.367L219 330l1-3c3.4 1.133 4.053 2.125 6 5l2-7Z" data-color="1"/>
        <path fill="#3C3C6C" d="M141 324c1.626.309 3.25.622 4.875.938l2.742.527C151 326 151 326 153 327v3l-5-1-4 16-4 1c1.089-5.758 2.293-11.392 4-17l-3-2v-3Z" data-color="1"/>
        <path fill="#3C3C6C" d="m69 270 3 1c-1.311 3.933-3.825 5.368-7.063 7.688-.567.415-1.135.83-1.72 1.26A706.152 706.152 0 0 1 59 283l.938 1.813C61 287 61 287 62 290l-3 1c-4.004-4.297-4.004-4.297-5-6 .549-4.29 2.684-5.744 5.918-8.31l1.957-1.502 1.934-1.561c1.664-1.298 3.423-2.473 5.191-3.627Z" data-color="1"/>
        <path fill="#3C3C6C" d="M329 207c2.938.308 5.875.622 8.813.938l2.525.263 2.432.264 2.237.238C347 209 347 209 350 210v3c-16.116-1.155-16.116-1.155-21-2l-1-2 1-2Z" data-color="1"/>
        <path fill="#3C3C6C" d="m45 123 5 2-1 4-5 1c-.625-2.375-.625-2.375-1-5l2-2Z" data-color="1"/>
        <path fill="#3C3C6C" d="M187 338c2.125.938 2.125.938 4 2l-1 4c-1.875.625-1.875.625-4 1l-2-2c.25-2.063.25-2.063 1-4l2-1Z" data-color="1"/>
        <path fill="#3C3C6C" d="M329 123c2.125.938 2.125.938 4 2l-1 5-5-1v-5l2-1Z" data-color="1"/>
    </g>
</svg>
